<svg width="73" height="76" viewBox="0 0 73 76" fill="none" xmlns="http://www.w3.org/2000/svg">
<path d="M52.768 0.00012207C53.2124 0.125018 53.6608 0.240002 54.1012 0.378776C57.9658 1.59007 60.3584 5.46385 59.7156 9.45855C59.0807 13.4037 55.5891 16.3497 51.5956 16.31C47.5941 16.2704 44.162 13.2768 43.5887 9.32572C42.9677 5.04951 45.8126 1.02507 50.068 0.154756C50.2287 0.121054 50.3834 0.0536491 50.5402 0.00012207C51.2821 0.00012207 52.0261 0.00012207 52.768 0.00012207Z" fill="#FD4C00"/>
<path d="M32.4791 49.1264C31.4713 50.8294 30.398 52.5165 29.4537 54.2729C28.2574 56.4973 26.4699 57.4469 23.9524 57.4211C17.7171 57.3557 11.4797 57.4033 5.24442 57.3973C2.6872 57.3953 0.7926 56.0274 0.175614 53.7634C-0.661583 50.6827 1.59409 47.6514 4.82582 47.6277C10.3192 47.588 15.8125 47.6098 21.3059 47.6217C21.7642 47.6217 22.0637 47.5345 22.3137 47.0944C26.7953 39.2398 31.2967 31.3971 35.7922 23.5524C35.8755 23.4077 35.9449 23.255 36.056 23.037C35.7961 23.0191 35.6116 22.9953 35.4252 22.9953C32.7767 22.9933 30.1302 23.0052 27.4817 22.9834C27.0274 22.9795 26.7814 23.1182 26.5632 23.5207C25.0673 26.2783 23.5635 29.032 22.0201 31.7638C21.0321 33.5104 19.0859 34.4561 17.2132 34.1944C15.142 33.9029 13.5727 32.5509 13.053 30.5823C12.7296 29.3591 12.8546 28.1676 13.4597 27.0594C15.5467 23.2451 17.6318 19.4288 19.7644 15.6423C20.6572 14.0583 22.1054 13.2296 23.9206 13.2197C29.1422 13.188 34.3638 13.2138 39.5854 13.1959C40.0059 13.1959 40.1765 13.3585 40.3591 13.7015C42.7377 18.1957 46.4853 20.543 51.564 20.7472C51.9846 20.765 52.2266 20.8899 52.4528 21.2408C53.8851 23.4632 55.3393 25.6717 56.7895 27.8841C56.9224 28.0883 57.0673 28.2866 57.2518 28.5502C58.3469 27.9456 59.4201 27.3528 60.4934 26.7601C62.0726 25.8878 63.6299 24.9719 65.2369 24.1551C67.3398 23.0865 69.8792 23.7209 71.2857 25.5864C72.6844 27.444 72.5852 30.0767 70.9981 31.7975C70.5874 32.2436 70.0676 32.6183 69.5359 32.9157C65.7864 35.023 62.027 37.1086 58.2616 39.1843C55.6389 40.6315 53.0202 39.9673 51.3616 37.4575C50.0543 35.477 48.7588 33.4906 47.4574 31.5061C47.4316 31.4645 47.3939 31.4308 47.2828 31.298C45.0212 35.1519 42.7814 38.9682 40.5078 42.8419C41.0058 43.2424 41.4799 43.631 41.96 44.0096C44.6204 46.1071 47.2828 48.2046 49.9471 50.2981C52.177 52.0486 52.7325 54.1005 51.6771 56.7233C49.5206 62.0819 47.376 67.4465 45.1977 72.7972C43.9241 75.9276 40.2876 76.9525 37.653 74.9621C35.9092 73.6457 35.2645 71.3738 36.0997 69.2466C37.4447 65.8229 38.8335 62.417 40.2043 59.0031C40.5436 58.1546 40.9066 57.316 41.2082 56.4537C41.2736 56.2633 41.2082 55.8986 41.0653 55.7856C38.2819 53.5652 35.4767 51.3706 32.6755 49.172C32.6418 49.1443 32.5842 49.1482 32.4791 49.1244V49.1264Z" fill="#FD4C00"/>
</svg>
