<svg width="43" height="43" viewBox="0 0 43 43" fill="none" xmlns="http://www.w3.org/2000/svg">
<rect width="42.0734" height="42.0734" rx="21.0367" fill="#F7F8F9"/>
<path d="M26.6142 26.6148C26.9565 26.2725 26.9565 25.7175 26.6142 25.3752L22.2762 21.0372L26.6154 16.698C26.9577 16.3557 26.9577 15.8007 26.6154 15.4584C26.2731 15.1161 25.7181 15.1161 25.3758 15.4584L21.0366 19.7976L16.6974 15.4584C16.3551 15.1161 15.8001 15.1161 15.4578 15.4584C15.1155 15.8007 15.1155 16.3557 15.4578 16.698L19.797 21.0372L15.459 25.3752C15.1167 25.7175 15.1167 26.2725 15.459 26.6148C15.8013 26.9571 16.3563 26.9571 16.6986 26.6148L21.0366 22.2768L25.3746 26.6148C25.7169 26.9571 26.2719 26.9571 26.6142 26.6148Z" fill="#191D23"/>
</svg>
