<svg width="74" height="66" viewBox="0 0 74 66" fill="none" xmlns="http://www.w3.org/2000/svg">
<path d="M73.2525 19.6918V22.9744C73.2125 23.1079 73.1495 23.2394 73.1362 23.3767C72.8043 26.6726 71.6788 29.6941 69.9982 32.5325C69.7292 32.9881 69.4335 33.1197 68.9261 33.1177C63.3978 33.0987 57.8695 33.0949 52.3393 33.1235C51.7689 33.1254 51.5038 32.9252 51.252 32.4544C48.9781 28.2015 46.6947 23.9543 44.3712 19.73C44.0908 19.221 43.6215 18.712 43.1122 18.4566C42.0191 17.9076 40.8822 18.4699 40.2813 19.7338C37.5782 25.4145 34.8808 31.1009 32.1815 36.7835C32.0556 37.0466 31.9221 37.3058 31.7523 37.6471C31.531 37.3135 31.3841 37.1 31.243 36.8807C29.4918 34.1357 27.7463 31.3869 25.9875 28.6456C24.904 26.9567 23.0784 26.97 22.0406 28.6742C21.249 29.9724 20.4592 31.2725 19.6962 32.5878C19.4844 32.9538 19.2593 33.1216 18.8091 33.1197C13.9237 33.1025 9.0383 33.1025 4.15289 33.1197C3.71032 33.1197 3.43945 32.99 3.26014 32.5954C2.50663 30.9351 1.62531 29.3204 1.02059 27.6067C0.513168 26.1694 0.32811 24.6196 0 23.1174C0 21.9756 0 20.8337 0 19.6918C0.106827 19.038 0.20031 18.3822 0.32049 17.7322C2.83473 4.07752 18.4925 -5.02876 32.3437 3.02144C33.8373 3.8888 35.2127 4.95822 36.6892 5.96474C37.168 5.58729 37.6964 5.14694 38.2477 4.73709C42.8298 1.34392 47.9003 -0.457511 53.6709 0.11056C62.6462 0.995072 70.3072 7.54313 72.583 16.2758C72.8748 17.3967 73.0312 18.5519 73.2506 19.6899L73.2525 19.6918Z" fill="#FD4C00"/>
<path d="M7.00333 37.3869C9.16847 37.3869 11.1676 37.3869 13.1668 37.3869C15.5742 37.3869 17.9817 37.3774 20.3891 37.3907C21.3352 37.3964 22.0334 37.0114 22.5122 36.2012C23.0063 35.3663 23.5176 34.5408 24.0612 33.6449C24.2482 33.9194 24.3932 34.1215 24.5286 34.3311C26.3332 37.1562 28.1473 39.9756 29.9329 42.8122C30.4594 43.649 31.0774 44.2857 32.1457 44.2247C33.2464 44.1618 33.7824 43.4317 34.2155 42.5129C36.827 36.9694 39.4633 31.4393 42.092 25.9035C42.1912 25.6938 42.3038 25.4898 42.4507 25.2058C42.6166 25.486 42.7521 25.7014 42.8741 25.9264C44.6692 29.2509 46.4776 32.5659 48.246 35.9057C48.7992 36.9504 49.5813 37.406 50.7679 37.3983C55.6056 37.3678 60.4452 37.385 65.2849 37.385H66.1929C65.922 37.6824 65.7618 37.873 65.5863 38.0484C56.5308 47.0384 47.4753 56.0284 38.418 65.0146C37.2066 66.2155 36.0373 66.2365 34.8755 65.0851C25.7495 56.0322 16.6253 46.9755 7.50121 37.9207C7.36959 37.7891 7.24941 37.6481 7.00715 37.3869H7.00333Z" fill="#FD4C00"/>
</svg>
