<svg width="60" height="67" viewBox="0 0 60 67" fill="none" xmlns="http://www.w3.org/2000/svg">
<path d="M0 37.1168C0 53.4439 13.2815 66.7122 29.5954 66.7122C45.9093 66.7122 59.1908 53.4307 59.1908 37.1168C59.1908 27.3046 54.3708 18.618 46.9952 13.2286L49.7494 9.52086C50.4248 8.60717 50.2394 7.32272 49.3257 6.64739C48.412 5.97205 47.1276 6.17068 46.4522 7.07112L43.5258 11.0172C40.9436 9.64003 38.1364 8.63366 35.1835 8.06426C35.1835 8.01129 35.2099 7.97157 35.2099 7.9186V4.10496H37.0638C38.2026 4.10496 39.1163 3.17803 39.1163 2.05248C39.1163 0.926926 38.1894 0 37.0638 0H20.7896C19.6508 0 18.7371 0.926926 18.7371 2.05248C18.7371 3.17803 19.6641 4.10496 20.7896 4.10496H22.6435V7.9186C22.6435 8.0775 22.6964 8.20992 22.7362 8.35558C20.2335 8.95146 17.8499 9.83866 15.6386 11.0304L12.6989 7.07112C12.0236 6.15744 10.7391 5.97205 9.82542 6.64739C8.91173 7.32272 8.72635 8.60717 9.40168 9.52086L12.1692 13.255C4.80677 18.6312 0 27.3178 0 37.1168ZM26.7617 4.10496C26.7617 4.10496 26.8279 4.10496 26.8676 4.10496H30.9991C30.9991 4.10496 31.0653 4.10496 31.105 4.10496V7.58755C30.6018 7.56107 30.1119 7.5081 29.6087 7.5081C28.6553 7.5081 27.7018 7.56107 26.7749 7.65376V4.10496H26.7617ZM29.5954 11.6263C43.645 11.6263 55.0859 23.054 55.0859 37.1168C55.0859 51.1796 43.6582 62.6073 29.5954 62.6073C15.5326 62.6073 4.1182 51.1663 4.1182 37.1168C4.1182 23.0672 15.5459 11.6263 29.5954 11.6263Z" fill="#FD4C00"/>
<path d="M30.8672 39.461L38.0443 46.6381C38.4415 47.0353 38.9712 47.2472 39.5009 47.2472C40.0305 47.2472 40.547 47.0486 40.9575 46.6381C41.7652 45.8303 41.7652 44.5326 40.9575 43.7249L33.7804 36.5478C34.2041 35.1045 33.8599 33.4757 32.7078 32.3369C31.0394 30.6685 28.3248 30.6685 26.6563 32.3369C24.9879 34.0054 24.9879 36.72 26.6563 38.3884C27.7951 39.5272 29.4239 39.8715 30.8672 39.461Z" fill="#FD4C00"/>
</svg>
