<svg width="64" height="63" viewBox="0 0 64 63" fill="none" xmlns="http://www.w3.org/2000/svg">
<path d="M4.63986 41.2751C4.26977 40.9885 3.88727 40.7589 3.59161 40.45C2.57851 39.3932 2.54956 37.928 3.57094 36.8875C5.12781 35.3003 6.71775 33.7396 8.32838 32.2053C9.41798 31.1688 10.9521 31.2156 12.0748 32.3008C14.0431 34.2029 15.999 36.1193 17.9218 38.0662C18.354 38.5031 18.7096 38.5621 19.2699 38.3649C20.8702 37.802 22.487 37.2899 24.1038 36.7696C25.1624 36.4282 25.8488 35.7556 26.1921 34.7069C26.7524 32.9958 27.352 31.2969 27.9164 29.5877C28.2679 28.5229 28.946 27.8156 30.048 27.4702C31.7889 26.9235 33.5112 26.3199 35.2521 25.7692C36.3458 25.4237 37.0529 24.745 37.4065 23.6719C37.9461 22.034 38.4878 20.398 39.0729 18.7743C39.2383 18.317 39.1494 18.0406 38.8103 17.7114C36.8627 15.8255 34.9316 13.9213 33.0026 12.0151C31.6649 10.6962 31.6587 9.25735 32.9819 7.94859C34.3444 6.5992 35.7173 5.25793 37.0819 3.90853C38.6057 2.40265 40.0116 2.39655 41.5499 3.90446C41.7132 4.06501 41.8455 4.25807 42.0295 4.48365C42.2714 4.27636 42.4472 4.14427 42.6022 3.99185C43.6815 2.93712 44.7442 1.86411 45.838 0.823606C46.9565 -0.239249 48.5113 -0.302248 49.5678 0.803284C50.2811 1.55114 51.042 1.84988 52.0138 1.68933C53.6451 1.41905 54.7967 2.04904 55.8883 3.24602C57.6065 5.13193 59.519 6.84713 61.3198 8.66394C61.5555 8.90171 61.6734 9.30206 61.7354 9.6455C61.8057 10.0398 61.7829 10.4564 61.7457 10.8587C61.6423 12.007 61.8305 12.9601 62.7857 13.8339C63.836 14.7952 63.6644 16.3153 62.6038 17.3761C61.4108 18.569 60.1889 19.7314 58.756 21.1235C59.1675 21.4141 59.5707 21.6194 59.8684 21.9222C60.9146 22.9952 60.9394 24.4726 59.8891 25.5436C58.3487 27.1125 56.7774 28.6529 55.1833 30.169C54.0586 31.24 52.5265 31.1831 51.3811 30.0653C48.9641 27.7079 46.5616 25.3343 44.157 22.9627C43.9586 22.7676 43.8035 22.5319 43.5078 22.164C43.1026 23.3305 42.7594 24.2653 42.4534 25.2124C41.5519 28.0087 39.6642 29.8215 36.8379 30.7217C35.6366 31.1038 34.4292 31.4716 33.2548 31.9187C32.9323 32.0406 32.5932 32.3821 32.4692 32.7011C31.9833 33.955 31.5925 35.2414 31.1459 36.5095C30.2631 39.0153 28.5408 40.7183 25.9998 41.6084C24.9412 41.9782 23.8743 42.3197 22.7227 42.7037C22.9708 42.9639 23.1548 43.1671 23.3492 43.3602C25.702 45.6749 28.057 47.9855 30.4078 50.3022C31.8489 51.7228 31.853 53.123 30.4223 54.5374C29.0577 55.8848 27.689 57.2301 26.3182 58.5734C24.8895 59.9716 23.4422 59.9716 22.0197 58.5653C21.8233 58.3702 21.6869 58.1141 21.4739 57.8154C20.2189 59.055 19.1148 60.1484 18.0066 61.2356C16.4704 62.7456 15.0459 62.7679 13.5448 61.2478C13.1272 60.8251 12.6971 60.6016 12.1223 60.7052C10.0093 61.0873 8.49378 60.2683 7.12506 58.6892C5.62195 56.9578 3.88314 55.4255 2.22289 53.8302C1.859 53.4806 1.68739 53.127 1.73081 52.6312C1.76596 52.2288 1.70393 51.8163 1.74529 51.4159C1.85487 50.3104 1.63777 49.4162 0.723913 48.5891C-0.316067 47.6482 -0.189946 46.124 0.810751 45.1018C1.84866 44.043 2.92172 43.0167 3.97618 41.9742C4.15399 41.7994 4.32146 41.6124 4.64606 41.271L4.63986 41.2751ZM55.9752 23.8183C50.3866 18.3211 44.8187 12.8463 39.2859 7.40396C38.4361 8.24327 37.5347 9.13541 36.7138 9.94627C42.2528 15.3886 47.8373 20.8776 53.4052 26.3484C54.2384 25.5274 55.1275 24.6515 55.9752 23.8183ZM26.802 52.5092C21.203 46.9999 15.6331 41.5169 10.1726 36.1437C9.32081 36.9871 8.41935 37.8772 7.64609 38.6413C13.1479 44.0552 18.7158 49.5361 24.263 54.9946C25.0859 54.1879 25.9791 53.312 26.7999 52.5072L26.802 52.5092ZM45.1433 7.18448C48.807 10.7876 52.5182 14.4355 56.1302 17.9858C56.9676 17.1566 57.8691 16.2665 58.6982 15.4455C55.0696 11.8789 51.3728 8.24327 47.7153 4.64826C46.8759 5.47537 45.9889 6.34923 45.1412 7.18244L45.1433 7.18448ZM15.6744 57.7646C16.6007 56.8501 17.5001 55.964 18.2878 55.1857C14.6551 51.6049 10.9542 47.9591 7.3587 44.4128C6.50687 45.2501 5.60541 46.1362 4.7329 46.9958C8.36146 50.5664 12.052 54.2 15.6744 57.7646Z" fill="#FD4C00"/>
</svg>
